# xmcd CD database file
#
# Track frame offsets:
#	205
#	30460
#	60850
#	95250
#	126262
#	157990
#
# Disc length: 2552 seconds
#
# Revision: 0
# Processed by: cddbd v1.4PL0 Copyright (c) Steve Scherf et al.
# Submitted via: CDex 1.50Beta7
#
DISCID=3b09f606
DTITLE=Astral - Eolith City
DYEAR=1993
DGENRE=New Age
TTITLE0=Upon a New World
TTITLE1=Entering City Limits
TTITLE2=A Metallic Rainfall
TTITLE3=Machines 2093
TTITLE4=Hologram Forest
TTITLE5=The Departure
EXTD=YEAR: 1993
EXTT0=
EXTT1=
EXTT2=
EXTT3=
EXTT4=
EXTT5=
PLAYORDER=
